<svg width="15" height="16" viewBox="0 0 15 16" fill="none" xmlns="http://www.w3.org/2000/svg">
<path d="M7.5 0.5C9.15685 0.5 10.5 1.84315 10.5 3.5V4.5C10.5 6.15685 9.15685 7.5 7.5 7.5C5.84315 7.5 4.5 6.15685 4.5 4.5V3.5C4.5 1.84315 5.84315 0.5 7.5 0.5ZM14.5 14.5C14.5 14.2573 14.5 14.0145 14.5 13.7718C14.5 10.5854 10.8137 8.5 7.5 8.5C4.18629 8.5 0.5 10.5854 0.5 13.7718V14.5C0.5 15.0523 0.947715 15.5 1.5 15.5H13.5C14.0523 15.5 14.5 15.0523 14.5 14.5Z" stroke="currentColor" stroke-linecap="round" stroke-linejoin="round"/>
</svg>
